<?xml version="1.0" encoding="iso-8859-1"?>
<!-- Generator: Adobe Illustrator 21.1.0, SVG Export Plug-In . SVG Version: 6.00 Build 0)  -->
<svg version="1.1" id="Layer_1" xmlns="http://www.w3.org/2000/svg" xmlns:xlink="http://www.w3.org/1999/xlink" x="0px" y="0px"
	 viewBox="0 0 117.638 119.055" style="enable-background:new 0 0 117.638 119.055;" xml:space="preserve">
<path style="fill:#063F7B;" d="M101.939,68.313l-0.718,1.65c0,0-7.318,10.974-7.941,12.354l-1.497,3.132l-1.514,2.47
	c-0.275,0.474-0.691,1.189-1.505,1.139c-0.779-0.047-1.545-0.548-2.047-1.336c0,0-0.947-1.618-1.279-1.912
	c-0.675-0.601-1.576-0.349-2.143,0.051c-0.412,0.292-1.744,2.279-2.375,2.73c-0.703,0.485-1.615,0.562-2.57,0.222
	c-1.545-0.555-3.252-1.993-4.26-3.173l-2.169-3.288c-0.617-1.062-1.055-2.372-1.519-3.763c-0.389-1.167-0.792-2.374-1.312-3.431
	c-0.384-0.787-1.077-1.494-2.005-2.045c-0.257-0.155-0.68,0.083-0.884,0.395c-0.229,0.357-0.347,1.456-0.338,1.686L65.7,76.393
	c0,0-0.431,1.537-0.99,1.904c-0.833,0.548-2.222-0.557-2.23-0.564c-1.09-1.042-2.252-1.816-3.452-2.306
	c-2.066-0.844-4.645-1.328-7.442-1.399c-1.23,0-8.692,1.079-8.692,1.079c-1.454,0.38-4.161,1.086-7.563,3.083
	c-0.744,0.438-2.198,1.394-3.582,2.854l-4.4,5.137c-0.964,1.097-3.009,0.896-4.351,0.085c-0.856-0.516-1.24-1.386-1.579-2.154
	l-0.884-2.248l-1.398-3.893l-2.109-5.748c-1.264-3.753-1.529-5.503-1.529-5.694c0,0-0.025-6.177,0.283-8.612
	c0.12-0.941,0.754-1.787,1.392-2.572l1.723-2.145l3.042-3.603l1.786-2.138c0,0,7.289-10.55,7.871-11.681
	c0,0,3.552-5.354,4.453-5.456c0.447-0.05,0.706,0.163,0.793,0.255c1.053,1.086,2.438,1.71,3.253,1.493
	c1.094-0.375,2.527-1.607,3.151-3.236l0.226-0.614c0.547-1.513,1.295-3.584,2.952-4.708c0.838-0.564,2.098-0.261,2.773-0.098
	c1.315,0.314,6.742,0.77,6.742,0.77l1.606,0.182c0.53,0.145,1.079,0.296,1.449,0.662c0.229,0.223,0.923,0.9-1.055,3.967
	c-0.177,0.298-0.561,1.447-0.362,1.889c0.016,0.035,0.021,0.115,0.029,0.151c0.149,0.216,0.921,0.488,2.294,0.807
	c0,0,9.673,3.2,9.674,3.2c0.565,0.18,1.952,0.525,2.59-0.166c0.287-0.311,2.181-2.668,2.181-2.668
	c1.222-1.787,1.666-8.043,2.332-10.612c0.667-2.569,0.444-5.362,2.443-5.585c1.214-0.137,1.752,0.921,1.998,1.787
	c0.286,1,0.752,2.512,1.11,3.575c0.397,1.182,1.809,3.844,2.553,5.026c0.813,1.289,2.113,3.731,2.592,4.935
	c0.608,1.532,1.397,4.218,2.737,6.906c1.819,3.646,6.517,9.801,7.772,11.84c1.28,2.083,4.107,5.474,4.107,9.718
	C101.987,59.8,102.532,65.746,101.939,68.313z"/>
<path style="fill-rule:evenodd;clip-rule:evenodd;fill:#063F7B;" d="M84.487,94.068c2.169-0.19,4.075-0.545,4.619,0
	c0.543,0.548,0.814,2.189,0.543,3.146c-0.271,0.957-1.357,3.007-1.63,3.69c-0.271,0.684-0.289,1.22-0.543,1.504
	c-0.636,0.714-1.631,0.41-2.311,1.092c-0.679,0.686-2.309,0.411-3.124-0.683c-0.816-1.094-1.494-4.374-2.175-5.467
	c-0.68-1.095-0.904-2.772-0.36-3.456c0.542-0.684,2.309-1.504,2.716-0.546C82.631,94.305,82.722,94.224,84.487,94.068z"/>
<path style="fill:#FFFFFF;" d="M28.519,64.734h4.652l1.639-4.653h7.812l1.581,4.653h4.768l-7.812-20.89h-4.709L28.519,64.734z
	 M38.729,48.994h0.06l2.634,7.665H36.01L38.729,48.994z"/>
<path style="fill:#FFFFFF;" d="M50.403,70.06h4.155v-7.198h0.059c0.994,1.492,2.721,2.282,4.534,2.282
	c4.417,0,6.641-3.774,6.641-7.812c0-4.301-2.135-8.133-6.875-8.133c-1.873,0-3.511,0.731-4.505,2.34h-0.059v-1.931h-3.95V70.06z
	 M58.039,62.013c-2.691,0-3.627-2.34-3.627-4.798c0-2.458,0.878-4.886,3.598-4.886c2.663,0,3.629,2.487,3.629,4.886
	C61.639,59.672,60.76,62.013,58.039,62.013z"/>
<g>
	<rect x="67.284" y="43.844" style="fill:#FFFFFF;" width="4.155" height="3.423"/>
	<rect x="67.284" y="49.608" style="fill:#FFFFFF;" width="4.155" height="15.127"/>
</g>
<path style="fill:#FFFFFF;" d="M77.582,54.26c0.146-1.639,1.171-2.282,2.75-2.282c1.464,0,2.692,0.263,2.692,2.048
	c0,1.697-2.369,1.609-4.916,1.989c-2.574,0.351-5.149,1.17-5.149,4.594c0,3.101,2.283,4.535,5.149,4.535
	c1.845,0,3.774-0.497,5.092-1.872c0.029,0.498,0.146,0.995,0.291,1.463h4.215c-0.381-0.614-0.526-1.99-0.526-3.364v-7.871
	c0-3.628-3.629-4.3-6.644-4.3c-3.392,0-6.875,1.17-7.107,5.062H77.582z M83.024,58.882c0,0.907-0.116,3.482-3.365,3.482
	c-1.346,0-2.545-0.381-2.545-1.93c0-1.522,1.169-1.961,2.459-2.224c1.287-0.234,2.749-0.264,3.451-0.878V58.882z"/>
</svg>
